<svg xmlns="http://www.w3.org/2000/svg" width="36" height="36" viewBox="0 0 36 36"><g transform="translate(-1158 -934)"><g transform="translate(-474 920)"><circle cx="18" cy="18" r="18" transform="translate(1632 14)" fill="#264459"/></g><g transform="translate(1161.926 937.926)"><path d="M18,21.648a1,1,0,0,1-1-1V7.5a1,1,0,0,1,2,0V20.648A1,1,0,0,1,18,21.648Z" transform="translate(-3.926)" fill="#fff"/><path d="M20.648,15.074a1,1,0,0,1-.707-.293L14.074,8.914,8.207,14.781a1,1,0,0,1-1.414-1.414l6.574-6.574a1,1,0,0,1,1.414,0l6.574,6.574a1,1,0,0,1-.707,1.707Z" fill="#fff"/></g></g></svg>