<svg xmlns="http://www.w3.org/2000/svg" width="24" height="24" viewBox="0 0 24 24"><path d="M0,0H24V24H0Z" fill="none"/><path d="M6,3.25H18A2.753,2.753,0,0,1,20.75,6V18A2.753,2.753,0,0,1,18,20.75H6A2.753,2.753,0,0,1,3.25,18V6A2.753,2.753,0,0,1,6,3.25Zm12,16A1.251,1.251,0,0,0,19.25,18V6A1.251,1.251,0,0,0,18,4.75H6A1.251,1.251,0,0,0,4.75,6V18A1.251,1.251,0,0,0,6,19.25Z" fill="#264459"/><path d="M14,20.75a.75.75,0,0,1-.727-.568l-4-16a.75.75,0,1,1,1.455-.364l4,16A.751.751,0,0,1,14,20.75Z" fill="#264459"/><path d="M4,14.75a.75.75,0,0,1-.181-1.478l8-2a.75.75,0,1,1,.364,1.455l-8,2A.752.752,0,0,1,4,14.75Z" fill="#264459"/></svg>