<svg xmlns="http://www.w3.org/2000/svg" width="36" height="36" viewBox="0 0 36 36"><g transform="translate(-1632 -14)"><circle cx="18" cy="18" r="18" transform="translate(1632 14)" fill="#f5f5f5"/><g transform="translate(1638 20)"><path d="M0,0H24V24H0Z" fill="none"/><path d="M20,18H4a1,1,0,0,1-.493-1.87A3.012,3.012,0,0,0,5,13.935V11q0-.023,0-.047a7.982,7.982,0,0,1,4.069-6.6,3,3,0,0,1,5.861,0A7.982,7.982,0,0,1,19,10.953q0,.023,0,.047v2.935a3.012,3.012,0,0,0,1.493,2.195A1,1,0,0,1,20,18ZM6.368,16H17.632a4.993,4.993,0,0,1-.625-1.88A1,1,0,0,1,17,14V11.024A5.988,5.988,0,0,0,13.573,5.9,1,1,0,0,1,13,5a1,1,0,0,0-2-.016,1,1,0,0,1-.591.929A5.987,5.987,0,0,0,7,11.024V14a1,1,0,0,1-.007.12A4.993,4.993,0,0,1,6.368,16Z" fill="#264459"/><path d="M12,22a4,4,0,0,1-4-4V17a1,1,0,0,1,2,0v1a2,2,0,0,0,4,0V17a1,1,0,0,1,2,0v1A4,4,0,0,1,12,22Z" fill="#264459"/></g></g></svg>