<svg xmlns="http://www.w3.org/2000/svg" width="24" height="24" viewBox="0 0 24 24"><path d="M0,0H24V24H0Z" fill="none"/><path d="M5,9.75A2.75,2.75,0,1,1,7.75,7,2.753,2.753,0,0,1,5,9.75ZM3.75,7a1.25,1.25,0,1,0,.366-.884A1.251,1.251,0,0,0,3.75,7Z" fill="#264459"/><path d="M16,17.75A2.75,2.75,0,1,1,18.75,15,2.753,2.753,0,0,1,16,17.75Zm0-4A1.25,1.25,0,1,0,17.25,15,1.251,1.251,0,0,0,16,13.75Z" fill="#264459"/><path d="M18,9.75A3.75,3.75,0,1,1,21.75,6,3.754,3.754,0,0,1,18,9.75ZM15.75,6A2.25,2.25,0,1,0,18,3.75,2.253,2.253,0,0,0,15.75,6Z" fill="#264459"/><path d="M6,21.75A3.75,3.75,0,1,1,9.75,18,3.754,3.754,0,0,1,6,21.75Zm0-6A2.25,2.25,0,1,0,8.25,18,2.253,2.253,0,0,0,6,15.75Z" fill="#264459"/><path d="M9,17.75a.75.75,0,0,1-.215-1.469l5-1.5a.75.75,0,1,1,.431,1.437l-5,1.5A.75.75,0,0,1,9,17.75Z" fill="#264459"/><path d="M14.309,14.62a.746.746,0,0,1-.424-.132l-7.81-5.37a.75.75,0,0,1,.85-1.236l7.81,5.37a.75.75,0,0,1-.426,1.368Z" fill="#264459"/><path d="M7,7.75a.75.75,0,0,1-.092-1.494l8-1a.75.75,0,1,1,.186,1.488l-8,1A.758.758,0,0,1,7,7.75Z" fill="#264459"/></svg>