<svg xmlns="http://www.w3.org/2000/svg" width="33" height="33" viewBox="0 0 33 33"><path d="M0,0H33V33H0Z" fill="none"/><path d="M5.75,12A4.25,4.25,0,1,1,10,7.75,4.255,4.255,0,0,1,5.75,12ZM4.5,7.75a1.25,1.25,0,1,0,.366-.884A1.251,1.251,0,0,0,4.5,7.75Z" transform="translate(1.125 1.875)" fill="#71abd3"/><path d="M16.75,20A4.25,4.25,0,1,1,21,15.75,4.255,4.255,0,0,1,16.75,20Zm0-5.5A1.25,1.25,0,1,0,18,15.75,1.251,1.251,0,0,0,16.75,14.5Z" transform="translate(5.25 4.875)" fill="#71abd3"/><path d="M19.125,12.75A5.625,5.625,0,1,1,24.75,7.125,5.631,5.631,0,0,1,19.125,12.75ZM16.5,7.125A2.625,2.625,0,1,0,19.125,4.5,2.628,2.628,0,0,0,16.5,7.125Z" transform="translate(5.625 1.125)" fill="#71abd3"/><path d="M7.125,24.75a5.625,5.625,0,1,1,5.625-5.625A5.631,5.631,0,0,1,7.125,24.75Zm0-8.25A2.625,2.625,0,1,0,9.75,19.125,2.628,2.628,0,0,0,7.125,16.5Z" transform="translate(1.125 5.625)" fill="#71abd3"/><path d="M9,19.063a1.5,1.5,0,0,1-.43-2.937l6.875-2.062a1.5,1.5,0,1,1,.862,2.873L9.431,19A1.5,1.5,0,0,1,9,19.063Z" transform="translate(3.375 5.813)" fill="#71abd3"/><path d="M17.237,17.384a1.493,1.493,0,0,1-.849-.264L5.65,9.736a1.5,1.5,0,1,1,1.7-2.472l10.739,7.384a1.5,1.5,0,0,1-.851,2.736Z" transform="translate(2.438 3.188)" fill="#71abd3"/><path d="M7,8.875a1.5,1.5,0,0,1-.184-2.989l11-1.375a1.5,1.5,0,1,1,.372,2.977l-11,1.375A1.516,1.516,0,0,1,7,8.875Z" transform="translate(2.625 2.25)" fill="#71abd3"/></svg>