<svg xmlns="http://www.w3.org/2000/svg" width="24" height="24" viewBox="0 0 24 24"><path d="M0,0H24V24H0Z" fill="none"/><path d="M20,7H9A1,1,0,0,1,9,5H20a1,1,0,0,1,0,2Z" fill="#264459"/><path d="M20,13H9a1,1,0,0,1,0-2H20a1,1,0,0,1,0,2Z" fill="#264459"/><path d="M20,19H9a1,1,0,0,1,0-2H20a1,1,0,0,1,0,2Z" fill="#264459"/><path d="M5,7.01a1,1,0,0,1-1-1V6A1,1,0,0,1,6,6v.01A1,1,0,0,1,5,7.01Z" fill="#264459"/><path d="M5,13.01a1,1,0,0,1-1-1V12a1,1,0,0,1,2,0v.01A1,1,0,0,1,5,13.01Z" fill="#264459"/><path d="M5,19.01a1,1,0,0,1-1-1V18a1,1,0,0,1,2,0v.01A1,1,0,0,1,5,19.01Z" fill="#264459"/></svg>