<svg xmlns="http://www.w3.org/2000/svg" width="36" height="36" viewBox="0 0 36 36"><path d="M0,0H36V36H0Z" fill="none"/><path d="M25.552,7.5H9a1.5,1.5,0,1,1,0-3H25.552a1.5,1.5,0,0,1,0,3Z" transform="translate(4.464 3)" fill="#71abd3"/><path d="M25.552,13.5H9a1.5,1.5,0,1,1,0-3H25.552a1.5,1.5,0,0,1,0,3Z" transform="translate(4.464 6)" fill="#71abd3"/><path d="M25.552,19.5H9a1.5,1.5,0,1,1,0-3H25.552a1.5,1.5,0,0,1,0,3Z" transform="translate(4.464 9)" fill="#71abd3"/><path d="M5,7.515a1.5,1.5,0,0,1-1.5-1.5V6a1.5,1.5,0,0,1,3,0v.015A1.5,1.5,0,0,1,5,7.515Z" transform="translate(2.5 3)" fill="#71abd3"/><path d="M5,13.515a1.5,1.5,0,0,1-1.5-1.5V12a1.5,1.5,0,0,1,3,0v.015A1.5,1.5,0,0,1,5,13.515Z" transform="translate(2.5 6)" fill="#71abd3"/><path d="M5,19.515a1.5,1.5,0,0,1-1.5-1.5V18a1.5,1.5,0,0,1,3,0v.015A1.5,1.5,0,0,1,5,19.515Z" transform="translate(2.5 9)" fill="#71abd3"/></svg>