<svg xmlns="http://www.w3.org/2000/svg" width="36" height="36" viewBox="0 0 36 36"><path d="M0,0H36V36H0Z" fill="none"/><path d="M14,16.5A7.5,7.5,0,1,1,21.5,9,7.508,7.508,0,0,1,14,16.5ZM9.5,9a4.5,4.5,0,1,0,1.318-3.182A4.505,4.505,0,0,0,9.5,9Z" transform="translate(4 1.5)" fill="#71abd3"/><path d="M24,25.5A1.5,1.5,0,0,1,22.5,24V21A4.505,4.505,0,0,0,18,16.5H12A4.505,4.505,0,0,0,7.5,21v3a1.5,1.5,0,0,1-3,0V21A7.508,7.508,0,0,1,12,13.5h6A7.509,7.509,0,0,1,25.5,21v3A1.5,1.5,0,0,1,24,25.5Z" transform="translate(3 7.5)" fill="#71abd3"/></svg>