<svg xmlns="http://www.w3.org/2000/svg" width="36" height="36" viewBox="0 0 36 36"><path d="M0,0H36V36H0Z" fill="none"/><path d="M7,2.5H25A4.505,4.505,0,0,1,29.5,7V25A4.505,4.505,0,0,1,25,29.5H7A4.505,4.505,0,0,1,2.5,25V7A4.505,4.505,0,0,1,7,2.5Zm18,24A1.5,1.5,0,0,0,26.5,25V7A1.5,1.5,0,0,0,25,5.5H7A1.5,1.5,0,0,0,5.5,7V25A1.5,1.5,0,0,0,7,26.5Z" transform="translate(2 2)" fill="#71abd3"/><path d="M16,29.5a1.5,1.5,0,0,1-1.454-1.137l-6-24a1.5,1.5,0,1,1,2.91-.728l6,24A1.5,1.5,0,0,1,16,29.5Z" transform="translate(5 2)" fill="#71abd3"/><path d="M4,16.5a1.5,1.5,0,0,1-.363-2.956l12-3a1.5,1.5,0,0,1,.728,2.91l-12,3A1.5,1.5,0,0,1,4,16.5Z" transform="translate(2 6)" fill="#71abd3"/></svg>