<svg xmlns="http://www.w3.org/2000/svg" width="36" height="36" viewBox="0 0 36 36"><g transform="translate(-552 -588)"><circle cx="18" cy="18" r="18" transform="translate(552 588)" fill="#fff"/><g transform="translate(558 594)"><path d="M0,0H24V24H0Z" fill="none"/><path d="M9.667,6h8.666A3.671,3.671,0,0,1,22,9.667v8.666A3.671,3.671,0,0,1,18.333,22H9.667A3.671,3.671,0,0,1,6,18.333V9.667A3.671,3.671,0,0,1,9.667,6Zm8.666,14A1.669,1.669,0,0,0,20,18.333V9.667A1.669,1.669,0,0,0,18.333,8H9.667A1.669,1.669,0,0,0,8,9.667v8.666A1.669,1.669,0,0,0,9.667,20Z" fill="#264459"/><path d="M4.011,17.737a1,1,0,0,1-.494-.131A3.012,3.012,0,0,1,2,15V5A3,3,0,0,1,5,2H15a2.634,2.634,0,0,1,2.374,1.514,1,1,0,0,1-1.748.972C15.368,4.023,15.227,4,15,4H5A1,1,0,0,0,4,5V15a1.006,1.006,0,0,0,.507.868,1,1,0,0,1-.5,1.869Z" fill="#264459"/></g></g></svg>